<svg width="50" height="50" viewBox="0 0 50 50" fill="none" xmlns="http://www.w3.org/2000/svg">
<circle opacity="0.1" cx="25" cy="25" r="25" fill="#F3AF3D"/>
<path opacity="0.3" fill-rule="evenodd" clip-rule="evenodd" d="M14.333 26.3337C14.333 20.4426 19.1086 15.667 24.9997 15.667C30.8907 15.667 35.6663 20.4426 35.6663 26.3337C35.6663 32.2247 30.8907 37.0003 24.9997 37.0003C19.1086 37.0003 14.333 32.2247 14.333 26.3337Z" fill="#F3AF3D"/>
<path fill-rule="evenodd" clip-rule="evenodd" d="M23.6667 15.7495V14.3337H22.3333C21.597 14.3337 21 13.7367 21 13.0003C21 12.2639 21.597 11.667 22.3333 11.667H27.6667C28.403 11.667 29 12.2639 29 13.0003C29 13.7367 28.403 14.3337 27.6667 14.3337H26.3333V15.7495C25.8965 15.695 25.4515 15.667 25 15.667C24.5485 15.667 24.1035 15.695 23.6667 15.7495Z" fill="#F3AF3D"/>
<path fill-rule="evenodd" clip-rule="evenodd" d="M33.2232 19.5387L34.5024 18.2596C34.8929 17.869 34.8929 17.2359 34.5024 16.8454L34.031 16.3739C33.6405 15.9834 33.0073 15.9834 32.6168 16.3739L31.2803 17.7104C32.0018 18.2368 32.6548 18.8516 33.2232 19.5387Z" fill="#F3AF3D"/>
<path fill-rule="evenodd" clip-rule="evenodd" d="M25.2035 19C25.4647 19 25.6819 19.2012 25.702 19.4617L26.2917 27.1283C26.3141 27.4187 26.0845 27.6667 25.7932 27.6667H24.2064C23.9152 27.6667 23.6855 27.4187 23.7079 27.1283L24.2976 19.4617C24.3177 19.2012 24.5349 19 24.7962 19H25.2035Z" fill="#F3AF3D"/>
</svg>
