<svg width="24" height="24" viewBox="0 0 24 24" fill="none" xmlns="http://www.w3.org/2000/svg">
<path fill-rule="evenodd" clip-rule="evenodd" d="M14.9994 8C15.5514 8 15.9989 7.55229 15.9989 7V6C15.9989 3.79086 14.2088 2 12.0007 2H6.00412C3.79594 2 2.00586 3.79086 2.00586 6L2.00586 18C2.00586 20.2091 3.79594 22 6.00412 22H12.0076C14.2158 22 16.0059 20.2091 16.0059 18V17C16.0059 16.4477 15.5583 16 15.0063 16C14.4542 16 14.0067 16.4477 14.0067 17V18C14.0067 19.1046 13.1117 20 12.0076 20H6.00412C4.90003 20 4.00499 19.1046 4.00499 18L4.00499 6C4.00499 4.89543 4.90003 4 6.00412 4H12.0007C13.1047 4 13.9998 4.89543 13.9998 6V7C13.9998 7.55229 14.4473 8 14.9994 8Z" fill="#077777"/>
<rect x="20" y="11" width="2" height="12" rx="1" transform="rotate(90 20 11)" fill="#077777"/>
<path fill-rule="evenodd" clip-rule="evenodd" d="M17.2929 8.29289C17.6834 7.90237 18.3166 7.90237 18.7071 8.29289L21.7071 11.2929C22.0976 11.6834 22.0976 12.3166 21.7071 12.7071L18.7071 15.7071C18.3166 16.0976 17.6834 16.0976 17.2929 15.7071C16.9024 15.3166 16.9024 14.6834 17.2929 14.2929L19.5858 12L17.2929 9.70711C16.9024 9.31658 16.9024 8.68342 17.2929 8.29289Z" fill="#077777"/>

</svg>
